<svg width="60" height="60" viewBox="0 0 60 60" fill="none" xmlns="http://www.w3.org/2000/svg">
<g id="Tests - Light">
<g id="Frame 2" clip-path="url(#clip0_15_6307)">
<g id="Group 1">
<path id="Ellipse 66" d="M56.6174 24.9592C56.6174 28.9984 53.6084 32.1684 50.0204 32.1684C46.4324 32.1684 43.4235 28.9984 43.4235 24.9592C43.4235 20.92 46.4324 17.75 50.0204 17.75C53.6084 17.75 56.6174 20.92 56.6174 24.9592Z" stroke="#204E7F" stroke-width="1.5"/>
<path id="Ellipse 67" d="M16.9439 24.9592C16.9439 28.9984 13.9349 32.1684 10.3469 32.1684C6.75894 32.1684 3.75 28.9984 3.75 24.9592C3.75 20.92 6.75894 17.75 10.3469 17.75C13.9349 17.75 16.9439 20.92 16.9439 24.9592Z" stroke="#204E7F" stroke-width="1.5"/>
<path id="Vector 136" d="M52.9592 32.1224C57.6786 33.419 56.9297 42.0464 56.6696 54.0284C56.6459 55.1207 55.7558 56 54.6632 56H45.7756C44.671 56 43.7756 55.1046 43.7756 54V43.6633C43.7756 43.6633 34.5918 50.0306 30.9184 50.4286C27.2449 50.8265 26.143 47.2449 28.7143 44.4592C31.2857 41.6735 47.0817 32.1224 47.0817 32.1224" stroke="#204E70" stroke-width="1.5" stroke-linecap="round"/>
<path id="Vector 137" d="M7.71911 32.1224C2.91688 33.419 3.67907 42.0466 3.94365 54.0289C3.96777 55.121 4.85779 56 5.95015 56H15.0638C16.1684 56 17.0638 55.1046 17.0638 54V43.6633C17.0638 43.6633 25.7111 50.0306 29.449 50.4286M29.449 43.2653C26.5102 40.8775 13.6997 32.1224 13.6997 32.1224" stroke="#204E70" stroke-width="1.5" stroke-linecap="round"/>
<path id="Vector" d="M41.9483 10.2045C42.0172 10.0682 42.0172 9.93182 41.9483 9.79545C41.8793 9.65909 41.8104 9.59091 41.6724 9.52273L29.5357 4L17.3299 9.52273C17.0541 9.65909 16.9162 9.93182 17.0541 10.2045V10.2727C17.192 10.5455 17.4679 10.6818 17.7437 10.5455L18.6402 10.1364V17.3636C18.6402 17.6364 18.847 17.9091 19.1918 17.9091C19.5366 17.9091 19.7435 17.7045 19.7435 17.3636V9.65909L29.5357 5.22727L39.052 9.52273V21.4545C39.052 21.7273 39.2589 22 39.6037 22C39.9485 22 40.1553 21.7955 40.1553 21.4545V10L41.2587 10.4773C41.4656 10.6818 41.8104 10.5455 41.9483 10.2045Z" fill="#C62331"/>
<path id="Vector_2" d="M25 11V20H34V11H25ZM29.0299 18.9254H26.0746V12.0075H29.0299V18.9254ZM32.9925 18.9254H30.0373V12.0075H32.9925V18.9254Z" fill="#C62331"/>
</g>
</g>
</g>
<defs>
<clipPath id="clip0_15_6307">
<rect width="54.3674" height="52" fill="white" transform="translate(3 4)"/>
</clipPath>
</defs>
</svg>
