<svg width="60" height="60" viewBox="0 0 60 60" fill="none" xmlns="http://www.w3.org/2000/svg">
<g id="Tests - Light">
<g id="Group 4">
<g id=" 36 Stroke / ic_36_heart_hand">
<path id="Path" d="M41.0986 10C39.0736 10 37.0463 10.7745 35.5006 12.3213C33.9548 10.7745 31.9275 10 29.9003 10C27.3735 10 24.849 11.2011 23.2515 13.6055C21.1612 16.7574 21.7754 20.996 24.453 23.6743L32.5553 31.781C33.3675 32.5937 34.4341 33 35.5006 33C36.5648 33 37.6313 32.5937 38.4458 31.781L46.5482 23.6743C49.2234 20.996 49.8399 16.7574 47.7474 13.6055C46.1522 11.2011 43.6254 10 41.0986 10" stroke="#C51724" stroke-width="1.5"/>
</g>
<path id="Vector 111" d="M4 36V35.25C3.58579 35.25 3.25 35.5858 3.25 36H4ZM28.3087 45.6627C28.3484 46.075 28.7148 46.3771 29.1271 46.3375C29.5394 46.2978 29.8415 45.9314 29.8018 45.5191L28.3087 45.6627ZM16.6555 43.3748C16.2458 43.3139 15.8643 43.5968 15.8035 44.0065C15.7427 44.4162 16.0255 44.7977 16.4352 44.8585L16.6555 43.3748ZM29.9657 46.1089L29.8555 46.8508C29.9399 46.8633 30.0257 46.8614 30.1094 46.845L29.9657 46.1089ZM4 48.3879H3.25C3.25 48.6985 3.44154 48.9771 3.73165 49.0882L4 48.3879ZM11.939 36.1858L12.0997 35.4532L11.939 36.1858ZM28.6395 41.2682L29.386 41.1963L28.6395 41.2682ZM27.8929 41.34L28.3087 45.6627L29.8018 45.5191L29.386 41.1963L27.8929 41.34ZM16.4352 44.8585L29.8555 46.8508L30.0758 45.367L16.6555 43.3748L16.4352 44.8585ZM30.1094 46.845L47.9653 43.3595L47.6779 41.8873L29.822 45.3728L30.1094 46.845ZM49.3381 48.5697L28.9586 55.3798L29.434 56.8024L49.8135 49.9924L49.3381 48.5697ZM4 36.75H10.2251V35.25H4V36.75ZM11.7783 36.9183L26.9165 40.2387L27.2378 38.7735L12.0997 35.4532L11.7783 36.9183ZM24.0668 55.2736L4.26835 47.6875L3.73165 49.0882L23.5301 56.6743L24.0668 55.2736ZM3.25 36V48.3879H4.75V36H3.25ZM10.2251 36.75C10.7474 36.75 11.2681 36.8064 11.7783 36.9183L12.0997 35.4532C11.484 35.3181 10.8554 35.25 10.2251 35.25V36.75ZM28.9586 55.3798C27.3649 55.9123 25.6358 55.8748 24.0668 55.2736L23.5301 56.6743C25.4237 57.3998 27.5106 57.4452 29.434 56.8024L28.9586 55.3798ZM47.9653 43.3595C49.2505 43.1087 50.5304 43.8163 51.0015 45.0381L52.4011 44.4985C51.6683 42.5978 49.6772 41.4971 47.6779 41.8873L47.9653 43.3595ZM51.0015 45.0381C51.5552 46.4742 50.798 48.0819 49.3381 48.5697L49.8135 49.9924C52.0845 49.2335 53.2624 46.7325 52.4011 44.4985L51.0015 45.0381ZM29.386 41.1963C29.2717 40.0081 28.4039 39.0293 27.2378 38.7735L26.9165 40.2387C27.4465 40.3549 27.841 40.7998 27.8929 41.34L29.386 41.1963Z" fill="#204E7F"/>
</g>
</g>
</svg>
