<svg width="60" height="60" viewBox="0 0 60 60" fill="none" xmlns="http://www.w3.org/2000/svg">
<g id="Tests - Light">
<g id="Group 3">
<path id="Intersect" d="M37.6833 8.45595L37.2489 9.06737L37.6833 8.45595ZM11.6301 51.2121L11.568 51.9595L11.6301 51.2121ZM50.8727 22.2548L50.1231 22.2796L50.8727 22.2548ZM50.4841 21.1409L51.0863 20.6938L50.4841 21.1409ZM48.3699 51.2121L48.3079 50.4647L48.3699 51.2121ZM50.25 30C50.25 36.6997 49.9661 43.1869 49.4349 49.3457L50.9294 49.4747C51.4644 43.2719 51.75 36.7417 51.75 30H50.25ZM11.6921 9.53531C17.8593 9.02315 23.0145 8.75 30 8.75V7.25C22.9661 7.25 17.7689 7.5255 11.568 8.04046L11.6921 9.53531ZM9.75 30C9.75 23.3003 10.0339 16.8131 10.5651 10.6543L9.07063 10.5253C8.53562 16.728 8.25 23.2583 8.25 30H9.75ZM10.5651 49.3457C10.0339 43.1869 9.75 36.6997 9.75 30H8.25C8.25 36.7417 8.53562 43.2719 9.07064 49.4746L10.5651 49.3457ZM30 51.25C23.0145 51.25 17.8593 50.9768 11.6921 50.4647L11.568 51.9595C17.7689 52.4745 22.9661 52.75 30 52.75V51.25ZM48.3079 50.4647C42.1407 50.9768 36.9855 51.25 30 51.25V52.75C37.0339 52.75 42.2311 52.4745 48.432 51.9595L48.3079 50.4647ZM30 8.75C32.3668 8.75 34.5226 8.78136 36.5779 8.84266L36.6226 7.34333C34.5511 7.28154 32.3803 7.25 30 7.25V8.75ZM50.1231 22.2796C50.207 24.8163 50.25 27.3921 50.25 30H51.75C51.75 27.3756 51.7067 24.7833 51.6223 22.23L50.1231 22.2796ZM37.2489 9.06737C42.8939 13.0776 45.7316 15.9974 49.8819 21.5879L51.0863 20.6938C46.8539 14.9926 43.9063 11.9568 38.1176 7.84453L37.2489 9.06737ZM36.5779 8.84266C36.819 8.84985 37.0532 8.92833 37.2489 9.06737L38.1176 7.84453C37.6796 7.53336 37.1585 7.35931 36.6226 7.34333L36.5779 8.84266ZM9.07064 49.4746C9.18525 50.8034 10.2435 51.8495 11.568 51.9595L11.6921 50.4647C11.0917 50.4148 10.6165 49.9415 10.5651 49.3457L9.07064 49.4746ZM51.6223 22.23C51.604 21.6759 51.417 21.1393 51.0863 20.6938L49.8819 21.5879C50.0305 21.7881 50.1149 22.0299 50.1231 22.2796L51.6223 22.23ZM11.568 8.04046C10.2435 8.15045 9.18524 9.19661 9.07063 10.5253L10.5651 10.6543C10.6165 10.0585 11.0917 9.58518 11.6921 9.53531L11.568 8.04046ZM49.4349 49.3457C49.3835 49.9415 48.9083 50.4148 48.3079 50.4647L48.432 51.9595C49.7565 51.8495 50.8148 50.8034 50.9294 49.4747L49.4349 49.3457Z" fill="#204E7F"/>
<path id="Intersect_2" d="M35.664 12.435L35.2355 13.0506L35.664 12.435ZM9.74624 49.4951L8.99908 49.5603L9.74624 49.4951ZM11.5605 51.2933L11.5 52.0409L11.5605 51.2933ZM47.884 25.0252L47.1344 25.0503L47.884 25.0252ZM47.4838 23.8973L48.0812 23.4439L47.4838 23.8973ZM47.2538 49.4951L48.0009 49.5603L47.2538 49.4951ZM45.4394 51.2933L45.5 52.0409L45.4394 51.2933ZM47.25 32C47.25 38.0339 46.9912 43.8781 46.5066 49.4299L48.0009 49.5603C48.4894 43.9641 48.75 38.0765 48.75 32H47.25ZM11.6211 13.4542C17.2947 12.9949 22.0592 12.75 28.5 12.75V11.25C22.0122 11.25 17.2068 11.4971 11.5 11.9591L11.6211 13.4542ZM9.75 32C9.75 25.9661 10.0088 20.1219 10.4934 14.5701L8.99908 14.4397C8.51061 20.0359 8.25 25.9235 8.25 32H9.75ZM10.4934 49.4299C10.0088 43.8781 9.75 38.0339 9.75 32H8.25C8.25 38.0765 8.51061 43.9641 8.99908 49.5603L10.4934 49.4299ZM28.5 51.25C22.0592 51.25 17.2947 51.0051 11.6211 50.5458L11.5 52.0409C17.2068 52.5029 22.0122 52.75 28.5 52.75V51.25ZM45.3789 50.5458C39.7053 51.0051 34.9408 51.25 28.5 51.25V52.75C34.9878 52.75 39.7932 52.5029 45.5 52.0409L45.3789 50.5458ZM28.5 12.75C30.685 12.75 32.6762 12.7782 34.5745 12.8333L34.618 11.3339C32.7039 11.2784 30.6981 11.25 28.5 11.25V12.75ZM47.1344 25.0503C47.2108 27.3342 47.25 29.6527 47.25 32H48.75C48.75 29.6361 48.7106 27.3008 48.6336 25.0002L47.1344 25.0503ZM35.2355 13.0506C40.4361 16.6706 43.0637 19.3147 46.8864 24.3508L48.0812 23.4439C44.1745 18.2972 41.436 15.5391 36.0924 11.8195L35.2355 13.0506ZM34.5745 12.8333C34.8119 12.8402 35.042 12.9159 35.2355 13.0506L36.0924 11.8195C35.6582 11.5172 35.1451 11.3492 34.618 11.3339L34.5745 12.8333ZM8.99908 49.5603C9.11507 50.8892 10.1752 51.9336 11.5 52.0409L11.6211 50.5458C11.0208 50.4972 10.5453 50.025 10.4934 49.4299L8.99908 49.5603ZM48.6336 25.0002C48.6148 24.4374 48.4224 23.8933 48.0812 23.4439L46.8864 24.3508C47.0392 24.5521 47.126 24.7965 47.1344 25.0503L48.6336 25.0002ZM11.5 11.9591C10.1752 12.0664 9.11507 13.1108 8.99908 14.4397L10.4934 14.5701C10.5453 13.975 11.0208 13.5028 11.6211 13.4542L11.5 11.9591ZM46.5066 49.4299C46.4547 50.025 45.9792 50.4972 45.3789 50.5458L45.5 52.0409C46.8248 51.9336 47.8849 50.8892 48.0009 49.5603L46.5066 49.4299Z" fill="#204E7F"/>
<g id="Check">
<path id="Vector" d="M21 35.25L27.5455 42C30.6255 33.1523 33.1906 29.2699 39 24" stroke="#C51724" stroke-width="1.5" stroke-linecap="round" stroke-linejoin="round"/>
</g>
</g>
</g>
</svg>
