<svg width="60" height="60" viewBox="0 0 60 60" fill="none" xmlns="http://www.w3.org/2000/svg">
<g id="Tests - Light">
<g id="Vectors">
<path id="Vector 17" d="M42 25V6C42 5.44772 41.5523 5 41 5H8C7.44772 5 7 5.44772 7 6V54C7 54.5523 7.44772 55 8 55H41C41.5523 55 42 54.5523 42 54V43.75" stroke="#204E70" stroke-width="1.2" stroke-linecap="round"/>
<path id="Vector 18" d="M34.6417 38.8593L45.8205 25.0036C45.9871 24.7972 46.2288 24.6654 46.4925 24.6372L49.0274 24.3662C49.5765 24.3074 50.0693 24.705 50.128 25.2542L50.3991 27.7891C50.4273 28.0528 50.3496 28.3169 50.183 28.5233L39.0042 42.379" stroke="#C51724" stroke-width="1.2" stroke-linecap="round"/>
<path id="Vector 19" d="M34.6398 38.8596L34.1813 43.8913" stroke="#C51724" stroke-width="1.2" stroke-linecap="round"/>
<path id="Vector 20" d="M34.1826 43.891L39.0036 42.379" stroke="#C51724" stroke-width="1.2" stroke-linecap="round"/>
<path id="Vector 21" d="M44.3206 26.8623L48.683 30.382" stroke="#C51724" stroke-width="1.2" stroke-linecap="round"/>
<path id="Vector 22" d="M16 12.5H12.1C12.0448 12.5 12 12.5448 12 12.6V16.5C12 17.0523 12.4477 17.5 13 17.5H16C16.5523 17.5 17 17.0523 17 16.5V13.5C17 12.9477 16.5523 12.5 16 12.5Z" stroke="#204E70" stroke-width="1.2" stroke-linecap="round"/>
<path id="Vector 23" d="M16 22.5H12.1C12.0448 22.5 12 22.5448 12 22.6V26.5C12 27.0523 12.4477 27.5 13 27.5H16C16.5523 27.5 17 27.0523 17 26.5V23.5C17 22.9477 16.5523 22.5 16 22.5Z" stroke="#204E70" stroke-width="1.2" stroke-linecap="round"/>
<path id="Vector 24" d="M16 32.5H12.1C12.0448 32.5 12 32.5448 12 32.6V36.5C12 37.0523 12.4477 37.5 13 37.5H16C16.5523 37.5 17 37.0523 17 36.5V33.5C17 32.9477 16.5523 32.5 16 32.5Z" stroke="#204E70" stroke-width="1.2" stroke-linecap="round"/>
<path id="Vector 25" d="M16 42.5H12.1C12.0448 42.5 12 42.5448 12 42.6V46.5C12 47.0523 12.4477 47.5 13 47.5H16C16.5523 47.5 17 47.0523 17 46.5V43.5C17 42.9477 16.5523 42.5 16 42.5Z" stroke="#204E70" stroke-width="1.2" stroke-linecap="round"/>
<path id="Vector 26" d="M19.5 13.75H27" stroke="#204E70" stroke-width="1.2" stroke-linecap="round"/>
<path id="Vector 27" d="M19.5 16.25H32" stroke="#204E70" stroke-width="1.2" stroke-linecap="round"/>
<path id="Vector 28" d="M19.5 23.75H27" stroke="#204E70" stroke-width="1.2" stroke-linecap="round"/>
<path id="Vector 29" d="M19.5 26.25H32" stroke="#204E70" stroke-width="1.2" stroke-linecap="round"/>
<path id="Vector 30" d="M19.5 33.75H32" stroke="#204E70" stroke-width="1.2" stroke-linecap="round"/>
<path id="Vector 31" d="M19.5 36.25H27" stroke="#204E70" stroke-width="1.2" stroke-linecap="round"/>
<path id="Vector 32" d="M19.5 43.75H27" stroke="#204E70" stroke-width="1.2" stroke-linecap="round"/>
<path id="Vector 33" d="M19.5 46.25H32" stroke="#204E70" stroke-width="1.2" stroke-linecap="round"/>
</g>
</g>
</svg>
