<svg width="136" height="41" viewBox="0 0 136 41" fill="none" xmlns="http://www.w3.org/2000/svg">
<g id="&#208;&#187;&#208;&#190;&#208;&#179;&#208;&#190;">
<path id="Vector" d="M20.0295 0C24.7698 1.6 35.8527 5.46667 35.8527 5.46667V20.4667V36.2C35.8527 36.2 24.703 39.6 20.0295 41C19.8959 39.5333 19.7624 36.7333 19.6289 33.0667C19.6289 33.0667 19.6956 33.0667 19.7624 33.0667C23.6348 32.8 26.5724 31.7333 28.5754 30C30.5783 28.2667 31.5798 25.4 31.5798 21.4667C31.5798 17.4667 30.5115 14.6 28.4418 12.8667C26.3721 11.0667 23.4345 10.1333 19.6956 9.93333H19.5621C19.6956 4.93333 19.9627 1.46667 20.0295 0ZM15.6897 41C10.8827 39.5333 0 36.2 0 36.2V20.4667V5.46667C0 5.46667 10.8159 1.73333 15.623 0.0666667C15.7565 1.6 15.9568 5.06667 16.0903 10H15.5562C11.7506 10.2 8.81296 11.2 6.87678 13C4.9406 14.8 3.93913 17.6667 3.93913 21.5333C3.93913 25.4667 5.00736 28.3333 7.01031 30.1333C8.94649 31.8 11.9509 32.8667 15.9568 33.1333C15.9568 36.8 15.8233 39.4667 15.6897 41ZM16.1571 12C16.2239 14.6 16.2906 17.5333 16.2906 20.7333C16.2906 24.6667 16.2239 28.1333 16.1571 31C13.4197 30.8 11.4836 29.8667 10.2818 28.6C8.94649 27.2 8.27884 24.8 8.21208 21.4667C8.21208 18.2 8.87973 15.8667 10.215 14.4667C11.4168 13.1333 13.353 12.2 16.1571 12ZM27.4404 21.4667C27.4404 24.8 26.7059 27.2 25.3706 28.6C24.2356 29.7333 21.7653 30.6667 19.4953 31.0667C19.4286 28.1333 19.3618 24.7333 19.3618 20.7333C19.3618 17.5333 19.4286 14.5333 19.4953 11.9333C21.8989 12.1333 24.1021 13.0667 25.3706 14.3333C26.7059 15.8 27.3736 18.2 27.4404 21.4667Z" fill="#C51724"/>
<path id="Vector_2" d="M55.2148 32.4668H50.9418V30.5335C44.5991 30.0001 41.5947 26.9335 41.5947 20.9335C41.5947 14.9335 44.4656 11.8668 50.6747 11.3335L50.608 9.40015H54.9477V11.2668C61.3571 11.8001 64.2948 14.8668 64.2948 20.8668C64.2948 26.8001 61.4239 29.8001 55.0145 30.4668C55.0145 30.6668 55.0812 30.8668 55.0812 31.0668C55.0812 31.3335 55.148 31.6001 55.148 31.8668L55.2148 32.4668ZM50.8083 14.0001C47.3365 14.6001 45.9344 16.6001 45.9344 20.8668C45.9344 25.2001 47.47 27.2668 50.9418 27.8001V18.4668C50.9418 16.9335 50.875 15.5335 50.8083 14.0001ZM54.9477 14.0001C54.8809 16.4668 54.8142 18.8668 54.8142 21.3335C54.8142 23.5335 54.8142 25.6668 54.9477 27.8668C58.553 27.3335 60.0886 25.2668 60.0886 20.8668C60.0886 16.5335 58.553 14.4668 54.9477 14.0001Z" fill="white"/>
<path id="Vector_3" d="M88.5306 32.3999H83.7235L83.59 31.9999C83.1226 30.2665 81.9876 26.7332 81.2532 24.6665H74.2429L71.4388 32.3999H67.8335L68.2341 31.6665C70.0367 28.2665 76.3126 10.1332 76.3794 9.93319L76.5129 9.59985H80.3853L80.5188 9.93319C81.5871 13.5332 86.5277 28.1332 88.2635 31.5999L88.5306 32.3999ZM75.1776 21.8665H80.2518C80.1182 21.3999 79.9179 20.8665 79.7176 20.1999C79.1168 18.3999 78.3823 15.9999 77.7815 14.3332L75.1776 21.8665Z" fill="white"/>
<path id="Vector_4" d="M112.298 32.4H107.024L106.89 32.2667C106.423 31.8 106.089 31.3334 105.154 29.8667C104.754 29.2667 104.353 28.6 103.953 27.8667C103.552 27.2 103.151 26.5334 102.751 25.8667L102.617 25.6C101.616 24 99.8131 21.0667 98.144 20.5334L97.9437 20.4667C97.9437 20.7334 97.9437 21 97.9437 21.2667C97.9437 24.8667 98.0105 28.4 98.4778 31.8L98.5446 32.4H94.0713V18.4C94.0713 15.9334 94.0046 12.9334 93.4704 10L93.3369 9.40002H98.144V9.93336C98.144 10.8 98.0772 11.6 98.0772 12.4667C98.0104 14.7334 97.9437 17 97.9437 19.3334L98.0772 19.2667C100.481 18.4 104.553 12.8 104.887 9.93336L104.954 9.46669H109.093L108.826 10.2C108.292 11.4 108.025 12.0667 107.224 13.5334C105.688 16.3334 104.22 18.3334 102.884 19.4667C104.286 20.5334 105.154 22 106.69 24.3334C107.157 25.0667 107.691 25.8667 108.292 26.8C109.628 28.8667 110.763 30.4667 111.764 31.6L112.298 32.4Z" fill="white"/>
<path id="Vector_5" d="M125.318 32.3334H120.911V18.4001C120.911 16.4001 120.844 14.4001 120.644 12.3334H119.576C118.241 12.3334 116.905 12.4668 114.969 12.8668L114.368 13.0001V9.53345H131.26L131.059 13.0001L130.458 12.8668C128.723 12.5334 127.321 12.3334 125.785 12.3334H124.85C124.85 13.0001 124.85 13.7334 124.783 14.4001C124.717 16.8001 124.65 19.0668 124.65 21.2668C124.65 24.8001 124.717 28.2668 125.184 31.7334L125.318 32.3334Z" fill="white"/>
<path id="Vector_6" d="M136 29.9334C136 31.4001 134.798 32.6667 133.263 32.6667C131.794 32.6667 130.525 31.4667 130.525 29.9334C130.525 28.4667 131.727 27.2001 133.263 27.2001C134.798 27.2667 136 28.4667 136 29.9334Z" fill="white"/>
</g>
</svg>
