<svg width="61" height="60" viewBox="0 0 61 60" fill="none" xmlns="http://www.w3.org/2000/svg">
<g id="Icon Hause Fakt">
<path id="Vector 134" d="M50.1834 39.1453C52.6659 38.9062 53.9946 38.536 55.482 36.5038C55.633 36.2975 55.736 36.0588 55.7861 35.8081C56.1334 34.0709 56.0575 32.9653 55.2266 31.2642C55.1173 31.0404 54.9601 30.8433 54.7725 30.6795L39.8403 17.6443C39.071 16.9728 37.9194 16.9886 37.1689 17.681L27.6983 26.4181C27.5291 26.5743 27.335 26.7054 27.1156 26.7754C23.3017 27.9923 19.6789 22.3278 21.9198 19.7511C25.4185 16.2071 27.5153 14.2044 30.4546 11.6813C31.2156 11.0281 31.3652 9.927 30.6519 9.22201C29.2124 7.7993 26.2948 5.57257 21.2701 4.30149C0.464193 1.1766 -6.04964 23.0588 9.89968 36.8443M50.1834 39.1453C50.0924 43.3856 48.884 44.4559 44.9855 44.4047M50.1834 39.1453L41.0871 29.9412M44.9855 44.4047C44.4908 49.2091 43.0005 50.495 38.4881 50.6503M44.9855 44.4047L35.5643 35.5294M38.4881 50.6503C35.908 53.5732 35.7221 53.9975 32.7822 56.4445C32.6689 56.5388 32.5458 56.6234 32.4091 56.6783C30.906 57.2817 27.1278 57.3628 27.4426 53.9374M38.4881 50.6503C37.833 47.7579 36.9065 46.6824 33.94 46.0483M27.4426 53.9374C22.4329 54.28 21.2477 52.7346 21.2701 47.6919M27.4426 53.9374L33.94 46.0483M21.2701 47.6919C16.3503 48.0115 15.5637 46.5712 16.0722 42.4324M21.2701 47.6919L28.7421 40.7888M16.0722 42.4324C11.0488 42.8942 9.55286 41.817 9.89968 36.8443M16.0722 42.4324L22.8944 34.872M9.89968 36.8443L11.3848 35.5294L16.8619 30.6801C17.3807 30.2208 18.1047 30.0513 18.7542 30.293C21.0542 31.1487 22.0706 32.2611 22.8944 34.872M22.8944 34.872C26.4612 35.6938 27.8967 36.8094 28.7421 40.7888M28.7421 40.7888C32.2888 41.4856 33.1798 42.8582 33.94 46.0483" stroke="#204E7F" stroke-width="1.5" stroke-linecap="round"/>
<path id="Vector 135" d="M31.5 10.0001C51.2475 -5.00352 67.5 15.5001 56 30.5002" stroke="#C51724" stroke-width="1.5" stroke-linecap="round"/>
</g>
</svg>
