<svg width="60" height="60" viewBox="0 0 60 60" fill="none" xmlns="http://www.w3.org/2000/svg">
<g id="Classroom 1 - Light">
<g id="Vectors">
<circle id="Ellipse 66" cx="14.2666" cy="34.6001" r="5.38333" stroke="#204E7F" stroke-width="1.5"/>
<path id="Vector 129" d="M2 52.9998C2.51111 49.9331 4.45333 43.7998 8.13333 43.7998C11.8133 43.7998 17.8444 43.7998 20.4 43.7998C21.9333 43.7998 25.3067 45.6398 26.5333 52.9998" stroke="#204E7F" stroke-width="1.5" stroke-linecap="round"/>
<circle id="Ellipse 66_2" cx="44.9334" cy="34.6001" r="5.38333" stroke="#204E7F" stroke-width="1.5"/>
<path id="Vector 129_2" d="M32.6667 52.9998C33.1779 49.9331 35.1201 43.7998 38.8001 43.7998C42.4801 43.7998 48.5112 43.7998 51.0667 43.7998C52.6001 43.7998 55.9734 45.6398 57.2001 52.9998" stroke="#204E7F" stroke-width="1.5" stroke-linecap="round"/>
<circle id="Ellipse 66_3" cx="29.5999" cy="28.4668" r="5.38333" stroke="#204E7F" stroke-width="1.5"/>
<path id="Vector 130" d="M2 43.8V8C2 7.44771 2.44772 7 3 7H56.2C56.7523 7 57.2 7.44772 57.2 8V43.8" stroke="#C51724" stroke-width="1.5" stroke-linecap="round"/>
<path id="Vector 131" d="M51.0667 49.9331H38.8" stroke="#204E7F" stroke-width="1.5" stroke-linecap="round"/>
<path id="Vector 132" d="M20.4 49.9331H8.1333" stroke="#204E7F" stroke-width="1.5" stroke-linecap="round"/>
<path id="Vector 133" d="M20.3999 40.7332C20.838 39.7109 22.2399 37.6665 24.3428 37.6665C26.4456 37.6665 32.2285 37.6665 34.857 37.6665C35.7332 37.6665 37.7485 38.2798 38.7999 40.7332" stroke="#204E7F" stroke-width="1.5" stroke-linecap="round"/>
</g>
</g>
</svg>
