<svg width="60" height="60" viewBox="0 0 60 60" fill="none" xmlns="http://www.w3.org/2000/svg">
<g id="Icon Compan Fakt">
<g id="Illustration">
<path id="Vector" d="M39.9723 57.2084C39.9723 51.019 39.9723 44.8985 39.9723 38.7092C39.9723 38.3653 39.8344 38.0903 39.6276 37.8152C38.7314 36.9899 37.9042 36.0959 37.1459 35.3395C36.8701 35.0644 36.6633 34.9956 36.3186 34.9956C31.9756 34.9956 27.7015 34.9956 23.3584 34.9956C23.0137 34.9956 22.738 35.1331 22.5312 35.3395C21.7729 36.0959 20.9456 36.9212 20.1184 37.7464C19.7737 38.0215 19.6358 38.3653 19.7047 38.8467C19.7047 45.036 19.7047 51.1566 19.7047 57.1396C19.7047 57.621 19.8426 57.9648 20.1184 58.1711H39.6276C39.9034 57.8961 40.0412 57.621 39.9723 57.2084ZM31.0104 37.9527L31.6309 37.3338C31.7688 37.1962 32.2513 36.7836 32.3203 36.6461C32.8028 36.0272 33.2854 35.9584 34.1126 36.0959C34.5262 36.1647 34.9399 36.0959 35.3535 36.0959C35.5603 36.0959 35.7671 36.0959 35.905 36.0959H36.1118L36.3876 36.6461L35.4914 37.5401C34.7331 38.2966 33.9058 39.053 33.1475 39.8783C33.0786 39.9471 32.9407 40.0846 32.6649 40.0846C32.4581 40.0846 32.3203 39.9471 32.1824 39.8095C32.0445 39.672 31.9066 39.6032 31.7688 39.4657C31.3551 39.1218 31.2173 39.053 30.8036 38.5029C30.5968 38.2278 30.6658 38.2278 31.0104 37.9527ZM31.0794 36.1647L29.7696 37.4026L28.4598 36.1647H31.0794ZM26.3916 36.1647C26.6674 36.1647 26.8742 36.3022 26.9431 36.4398L27.3568 36.8524C27.7015 37.1963 28.0461 37.6089 28.4598 37.9527C28.5287 38.0215 28.7355 38.2278 28.7355 38.4341C28.7355 38.5717 28.6666 38.778 28.4598 38.9155C28.3219 39.053 28.253 39.1906 28.1151 39.3281C27.7704 39.7407 27.4257 40.0846 27.0121 40.1534H26.9431C26.5295 40.1534 26.1848 39.7407 25.9091 39.3969C25.7712 39.2594 25.7023 39.1218 25.5644 38.9843C25.0818 38.5029 24.5303 37.9527 24.0478 37.4713L23.4963 36.9212C23.4273 36.8524 23.3584 36.7149 23.3584 36.6461V36.5773L23.2895 36.1647H26.3916ZM26.8053 53.8386C26.6674 54.5951 26.5985 55.4203 26.5295 56.1768C26.4606 56.7957 26.047 56.8645 25.7023 56.8645C24.3925 56.8645 23.0827 56.8645 21.7039 56.8645H21.635C21.3592 56.8645 21.1524 56.7957 21.0145 56.6582C20.8077 56.4519 20.8077 56.1768 20.8077 55.9705C20.8077 53.8386 20.8077 51.7068 20.8077 49.5749V39.1906C20.8077 38.7092 21.4971 37.7464 21.9107 37.5401C22.1175 37.4713 22.3244 37.5401 22.5312 37.7464L24.7372 39.9471C25.7712 40.9786 26.8053 42.0102 27.8393 43.0417C28.1151 43.3168 28.1151 43.6606 28.0461 43.867V43.9357C27.7015 46.2739 27.4257 48.6121 27.081 50.9503L26.8053 53.8386ZM32.596 56.6582C32.3892 56.8645 32.1824 56.8645 31.9756 56.8645H31.9066C31.0104 56.8645 30.0453 56.8645 29.1491 56.8645H28.4598C28.3219 56.8645 28.0461 56.8645 27.9083 56.6582C27.7704 56.4519 27.7704 56.2456 27.7704 56.108C28.184 52.9446 28.5976 49.7812 29.0113 46.6178L29.6317 43.867C29.6317 43.7982 29.9074 42.9042 29.9074 42.9042C29.9074 42.9042 27.9083 41.3912 27.9083 41.1161C27.9083 40.8411 29.7006 39.1218 29.7006 39.1218C29.7006 39.1218 31.6998 40.7723 31.6998 41.0474C31.6998 41.3225 29.8385 42.8354 29.8385 42.8354L31.7688 51.9131C32.0445 53.2197 32.2513 54.5263 32.5271 55.7642C32.7339 56.108 32.8028 56.4519 32.596 56.6582ZM38.8004 45.3799V45.4487C38.8004 46.2051 38.8004 46.8928 38.8004 47.6493V49.85C38.8004 51.8443 38.8004 53.9762 38.8004 55.9705C38.8004 56.2456 38.8004 56.5207 38.5935 56.727C38.3867 56.9333 38.111 56.9333 37.9731 56.9333C37.9042 56.9333 37.9042 56.9333 37.8352 56.9333C36.9391 56.9333 36.0429 56.8645 34.9399 56.9333C34.3884 56.9333 34.1126 56.727 33.9747 56.1768C33.5611 54.1137 33.1475 52.1194 32.7339 50.0563L32.0445 46.6178C31.9066 45.7925 31.6998 44.8985 31.493 44.0045C31.4241 43.5919 31.493 43.248 31.7688 42.9729C33.699 41.1161 35.3535 39.4657 36.8701 37.884C37.2837 37.4026 37.6284 37.6089 37.9731 37.884C38.5246 38.3653 38.8004 38.9155 38.7314 39.672C38.7314 41.5975 38.8004 43.5231 38.8004 45.3799Z" fill="#204E7F"/>
<path id="Vector_2" d="M4.46821 38.9846C4.12352 39.3285 3.77884 39.6723 3.43415 40.0162C2.74478 40.6351 2.12434 41.3228 1.50391 42.0105V44.8989C1.50391 47.0995 1.50391 49.1626 1.50391 51.2257C1.50391 53.2888 1.50391 55.3519 1.50391 57.5526C1.50391 57.8964 1.64178 58.1027 1.98647 58.1027C3.84777 58.1027 5.57121 58.1027 7.29464 58.1027C9.15594 58.1027 11.0862 58.1027 13.0854 58.1027H15.705C15.8429 58.1027 15.9118 58.034 15.9807 57.9652C16.1875 57.7589 16.1875 57.4838 16.1875 57.2087C16.1875 52.8762 16.1875 48.6125 16.1875 44.2799V42.4231C16.1875 42.0793 16.1186 41.8042 15.9118 41.5979C15.1535 40.9102 14.4641 40.1537 13.7058 39.3973L13.1543 39.0534C12.9475 38.8471 12.7407 38.7783 12.4649 38.7783C9.98319 38.7783 7.50145 38.7783 5.08865 38.7783C4.8129 38.7783 4.60608 38.8471 4.46821 38.9846ZM12.7407 40.4976C12.9475 40.4976 13.0854 40.6351 13.2232 40.8414C14.4641 41.6667 14.9467 42.9045 14.8777 44.6926C14.8088 47.5809 14.8088 50.538 14.8088 53.3576L14.6709 53.4264H14.8777C14.8777 54.2516 14.8777 55.0768 14.8777 55.9021C14.8777 56.1772 14.8777 56.4522 14.6709 56.6586C14.4641 56.8649 14.1884 56.8649 14.0505 56.8649H13.9816C12.8786 56.7961 11.7066 56.8649 10.6036 56.8649H10.2589C10.0521 56.8649 9.84532 56.8649 9.70744 56.6586C9.50063 56.521 9.50063 56.2459 9.50063 56.1084C9.50063 52.8074 9.50063 49.5752 9.50063 46.2743V43.3859L9.56957 43.3171L9.70744 43.3859L9.56957 43.2484L11.2241 41.6667C11.5687 41.3228 11.9134 41.0477 12.1892 40.7727C12.1892 40.7039 12.396 40.4976 12.7407 40.4976ZM11.1551 40.0162L10.5347 40.6351C10.4658 40.7039 10.3279 40.8414 10.2589 40.9102L10.0521 41.1165C9.77638 41.3916 9.29382 41.873 8.8802 42.2168L8.74232 42.3544L8.60445 42.2168C7.84614 41.4604 7.29464 40.979 7.2257 40.9102L6.26058 40.0162H11.1551ZM6.05377 41.3228C6.39845 41.5979 7.84614 43.0421 8.12189 43.3859V43.4547V45.7241C8.12189 49.1626 8.12189 52.5323 8.12189 55.9709C8.12189 56.2459 8.12188 56.521 7.91507 56.6586C7.7772 56.7961 7.57039 56.8649 7.29464 56.8649H7.2257C5.91589 56.7961 4.60608 56.8649 3.50309 56.8649C3.29628 56.8649 3.02053 56.8649 2.81371 56.6586C2.6069 56.4522 2.6069 56.1772 2.6069 56.0396C2.6069 51.7071 2.6069 47.3058 2.6069 43.4547V42.9733C2.6069 42.6982 2.67584 42.4231 2.95159 42.1481C3.50309 41.6667 3.91671 41.1853 4.33033 40.7039C4.46821 40.5663 4.60608 40.4288 4.8129 40.4288C5.01971 40.4288 5.22652 40.5663 5.36439 40.7039C5.64014 40.9102 5.84695 41.1165 6.05377 41.3228Z" fill="#204E7F"/>
<path id="Vector_3" d="M58.1733 57.2087C58.1733 52.8762 58.1733 48.3374 58.1733 42.4919C58.1733 42.0793 58.0354 41.873 57.8286 41.5979C56.9324 40.7039 56.1052 39.8786 55.3469 39.1222C55.0711 38.8471 54.8643 38.7783 54.4507 38.7783C51.9689 38.7783 49.6251 38.7783 47.3501 38.7783C46.9365 38.7783 46.7297 38.9159 46.454 39.1222C45.6267 39.9474 44.8684 40.7727 44.0412 41.5291C43.6965 41.8042 43.5586 42.1481 43.5586 42.6982C43.5586 47.6497 43.5586 52.3948 43.5586 57.1399C43.5586 57.6901 43.6965 57.9652 43.9722 58.1715H57.7597C58.0354 57.8964 58.1733 57.6213 58.1733 57.2087ZM50.0387 56.6586C49.8319 56.8649 49.5561 56.8649 49.3493 56.8649H49.2804C48.1085 56.8649 46.9365 56.8649 45.6267 56.8649C45.4199 56.8649 45.1442 56.8649 45.0063 56.6586C44.7995 56.4522 44.7995 56.1772 44.7995 56.0396C44.7995 53.0825 44.7995 50.1254 44.7995 47.1683V42.9045C44.7995 42.6982 44.7995 42.4919 44.9373 42.2856C45.4199 41.7354 45.9714 41.1853 46.6608 40.4976C46.7297 40.4288 46.8676 40.2913 47.0744 40.36C47.2812 40.36 47.4191 40.4976 47.488 40.6351L47.4191 40.7727L47.557 40.6351C47.8327 40.9102 48.1085 41.1853 48.3842 41.4604L49.9698 43.0421C50.0387 43.1108 50.1766 43.2484 50.2455 43.2484L50.3145 43.3171V46.4806C50.3145 49.5752 50.3145 52.7387 50.3145 55.8333C50.2455 56.3147 50.1766 56.521 50.0387 56.6586ZM51.0038 42.2168L50.8659 42.3544L50.7281 42.2168C50.2455 41.7354 49.4872 40.979 49.3493 40.9102C49.2804 40.8414 49.1425 40.7727 49.0736 40.6351L48.3842 40.0162H53.1409L52.5894 40.5663C52.5204 40.6351 52.4515 40.7039 52.3826 40.7727L52.3136 40.8414C52.2447 40.979 51.4864 41.6667 51.0038 42.2168ZM56.7946 56.7273C56.6567 56.8649 56.3809 56.9336 56.2431 56.9336C54.7954 56.9336 53.4166 56.9336 52.3136 56.9336C52.1068 56.9336 51.9 56.9336 51.6932 56.7273C51.4864 56.521 51.4864 56.2459 51.4864 56.1772C51.4864 52.8074 51.4864 49.5065 51.4864 46.1367V43.4547L51.6932 43.2484C51.7621 43.1796 52.1068 42.8358 52.4515 42.4919C52.8651 42.0793 53.3477 41.5979 53.4166 41.5291L53.4856 41.4604C53.7613 41.1853 54.0371 40.979 54.3128 40.7039C54.3818 40.6351 54.5886 40.4976 54.7954 40.4976C55.0022 40.4976 55.1401 40.6351 55.2779 40.7039C55.7605 41.1853 56.2431 41.6667 56.7256 42.1481C57.0014 42.4231 57.0703 42.6982 57.0703 42.9733C57.0703 47.3746 57.0703 51.7071 57.0703 56.1084C56.9324 56.2459 56.9324 56.521 56.7946 56.7273Z" fill="#204E7F"/>
<path id="Vector_4" d="M52.0373 11.9579C50.5896 10.5138 49.2108 9.13837 47.7632 7.6942C47.2117 7.14404 47.0738 7.14404 46.4534 7.55666L45.5572 8.17559C44.3163 9.00083 43.0754 9.7573 41.9035 10.5825C41.4899 10.8576 41.1452 10.8576 40.7316 10.7201C38.9392 9.96361 37.2158 9.20714 35.9059 8.72575C35.4923 8.51944 35.2855 8.24436 35.2166 7.83174C35.0098 6.38756 34.8029 4.94339 34.5961 3.56799L34.4583 2.39889C34.1825 1.71119 33.9757 1.50488 33.4242 1.50488C31.0114 1.50488 28.5986 1.50488 26.1858 1.50488C25.6343 1.50488 25.4275 1.71119 25.3585 2.26135L25.1517 3.56799C24.9449 4.80585 24.7381 6.31879 24.6002 7.6942C24.5313 8.17559 24.3245 8.3819 23.9109 8.58821C21.9806 9.34468 20.464 10.0324 19.0163 10.6513C18.6027 10.8576 18.258 10.7889 17.8444 10.5138C16.2588 9.48222 14.7422 8.45067 13.1566 7.41912C12.6051 7.07527 12.4673 7.07527 11.9847 7.55666C10.537 9.00083 9.02041 10.445 7.57273 11.9579C7.09016 12.4393 7.09016 12.5769 7.43485 13.127C7.64166 13.4709 7.84848 13.746 8.05529 14.0898V14.1586C8.67572 15.1214 9.36509 16.1529 9.98553 17.0469C10.4681 17.7346 11.0885 18.6287 10.3992 19.6602C10.8817 19.9353 11.2953 20.1416 11.4332 20.1416C11.5711 20.0728 11.7779 19.5914 11.9847 19.11V19.0413C11.9847 18.9725 12.0536 18.9037 12.0536 18.9037C12.2605 18.4911 12.2605 18.216 11.9847 17.8034C11.5022 17.1157 11.0196 16.3592 10.606 15.6715L10.537 15.6028C10.0545 14.8463 9.50297 14.0898 9.02041 13.3333C8.67572 12.852 8.74466 12.5081 9.15828 12.0955C10.1234 11.2015 11.0885 10.1699 12.1915 9.0696C12.5362 8.72575 12.8809 8.65698 13.2945 8.93206C14.1218 9.48222 14.8801 10.0324 15.7073 10.5138L15.7763 10.5825C16.4656 10.9952 17.0861 11.4766 17.7754 11.8892C18.1201 12.0955 18.3959 12.1643 18.7406 12.0267C20.5329 11.2702 22.4632 10.445 25.0139 9.41345C25.3585 9.27591 25.5654 9.00083 25.6343 8.58821C25.7722 7.76297 25.8411 7.00649 25.979 6.18125V6.04371C26.1169 5.1497 26.2547 4.25569 26.3237 3.36168C26.3926 2.88029 26.6684 2.60521 27.1509 2.67398C27.7713 2.67398 28.3228 2.67398 28.9433 2.67398H29.7016H30.4599C31.0803 2.67398 31.7008 2.67398 32.3212 2.67398C32.7348 2.67398 33.0795 2.74275 33.2174 3.43045C33.3553 4.32446 33.4242 5.1497 33.5621 5.97494C33.7 6.80018 33.8378 7.6942 33.9068 8.51944C33.9757 9.00083 34.1825 9.20714 34.5961 9.41345C36.8711 10.3075 38.8703 11.2015 40.7316 11.9579C41.1452 12.1643 41.4899 12.0955 41.8346 11.8204C42.5929 11.2702 43.4201 10.7889 44.2474 10.2387C44.9367 9.7573 45.6261 9.34468 46.3155 8.86329C46.5912 8.65698 47.0048 8.51944 47.4185 8.93206C48.3836 9.96361 49.4177 10.9264 50.5206 12.0267C50.8653 12.3706 50.9343 12.7144 50.6585 13.127C50.176 13.8835 49.6934 14.7088 49.1419 15.6715C49.004 15.9466 48.8662 16.1529 48.7283 16.3592C48.2457 17.1845 48.2457 17.1845 48.5904 18.1473C48.6593 18.3536 48.7972 18.5599 48.8662 18.9037C49.073 19.3851 49.2108 19.8665 49.3487 19.9353C49.4866 20.0041 49.9002 19.7977 50.3828 19.5914C50.3828 19.5914 50.3828 19.5914 50.4517 19.5914C50.3828 19.3164 50.2449 19.11 50.176 18.835C50.0381 18.4911 49.9692 18.216 49.8313 17.9409C49.6245 17.5283 49.6934 17.1845 49.9002 16.7719C50.5207 15.7403 51.0721 14.7775 51.6926 13.746L52.1062 12.9895C52.5888 12.5769 52.5198 12.4393 52.0373 11.9579Z" fill="#C51724"/>
</g>
<circle id="Ellipse 67" cx="9.13333" cy="31.1333" r="5.38333" stroke="#204E7F" stroke-width="1.5"/>
<circle id="Ellipse 68" cx="50.1333" cy="31.1333" r="5.38333" stroke="#204E7F" stroke-width="1.5"/>
<circle id="Ellipse 66" cx="30" cy="26" r="6.25" stroke="#204E7F" stroke-width="1.5"/>
</g>
</svg>
