<svg width="20" height="20" viewBox="0 0 20 20" fill="none" xmlns="http://www.w3.org/2000/svg">
<g id="icon/Default">
<g id="Bullitt">
<path id="Vector" d="M18.2666 13.9961V6.30979C18.2666 5.21175 17.6407 4.23136 16.6626 3.76077L11.1461 1.09411C10.3637 0.701949 9.46383 0.701949 8.68135 1.09411L3.20404 3.76077C2.22595 4.23136 1.59998 5.25097 1.59998 6.30979V13.9569C1.59998 15.0549 2.22595 16.0353 3.20404 16.5059L8.72048 19.1725C9.50295 19.5647 10.4028 19.5647 11.1853 19.1725L16.7017 16.5059C17.6407 16.0745 18.2666 15.0549 18.2666 13.9961Z" fill="#C51724"/>
<path id="Vector_2" d="M14.4809 7.33135C14.7134 7.564 14.7134 7.94121 14.4809 8.17386L9.71074 12.9481C9.47829 13.1807 9.10141 13.1807 8.86895 12.9481L5.78237 9.85888C5.54992 9.62623 5.54992 9.24902 5.78237 9.01637C6.01483 8.78372 6.39171 8.78372 6.62417 9.01637L9.28985 11.6843L13.6391 7.33135C13.8716 7.0987 14.2485 7.0987 14.4809 7.33135Z" fill="#FAF8FF"/>
</g>
</g>
</svg>
